<?xml version="1.0" encoding="UTF-8" standalone="no"?>
<svg width="32px" height="32px" viewBox="0 0 32 32" version="1.1" xmlns="http://www.w3.org/2000/svg" xmlns:xlink="http://www.w3.org/1999/xlink">
    <g id="Page-1" stroke="none" stroke-width="1" fill="none" fill-rule="evenodd">
        <path d="M31.2194365,12.0985603 L17.8860858,0.669982516 C16.8447511,-0.222660839 15.1563322,-0.222660839 14.1149142,0.669982516 L0.781563517,12.0985603 C-0.259854506,12.9912037 -0.259854506,14.4384188 0.781563517,15.3310621 C1.82298154,16.2237769 3.5114004,16.2237769 4.55281843,15.3310621 L13.3338299,7.80441507 L13.3338299,29.7147844 C13.3338299,30.9771423 14.5277481,32.0005 16.0005,32.0005 C17.4732519,32.0005 18.6671701,30.9771423 18.6671701,29.7147844 L18.6671701,7.80441507 L27.4482649,15.3310621 C27.9689323,15.7773481 28.6514331,16.0004911 29.3338507,16.0004911 C30.0162682,16.0004911 30.6987691,15.7773481 31.2194365,15.3309907 C32.2608545,14.4383473 32.2608545,12.9912037 31.2194365,12.0985603 L31.2194365,12.0985603 Z" id="Shape" fill="#FFFFFF" transform="translate(16.000500, 16.000500) scale(-1, 1) rotate(90.000000) translate(-16.000500, -16.000500) "></path>
    </g>
</svg>