<?xml version="1.0" encoding="utf-8"?>
<!-- Generated by IcoMoon.io -->
<!DOCTYPE svg PUBLIC "-//W3C//DTD SVG 1.1//EN" "http://www.w3.org/Graphics/SVG/1.1/DTD/svg11.dtd">
<svg version="1.1" xmlns="http://www.w3.org/2000/svg" xmlns:xlink="http://www.w3.org/1999/xlink" width="60" height="56" viewBox="0 0 60 56">
<path fill="#ffffff" d="M40 29q0-0.438-0.281-0.719t-0.719-0.281h-7v-11q0-0.406-0.297-0.703t-0.703-0.297h-6q-0.406 0-0.703 0.297t-0.297 0.703v11h-7q-0.406 0-0.703 0.297t-0.297 0.703q0 0.438 0.281 0.719l11 11q0.281 0.281 0.719 0.281t0.719-0.281l10.969-10.969q0.312-0.375 0.312-0.75zM60 36q0 4.969-3.516 8.484t-8.484 3.516h-34q-5.781 0-9.891-4.109t-4.109-9.891q0-4.063 2.188-7.5t5.875-5.156q-0.063-0.938-0.063-1.344 0-6.625 4.687-11.312t11.312-4.687q4.875 0 8.922 2.719t5.891 7.219q2.219-1.938 5.187-1.938 3.312 0 5.656 2.344t2.344 5.656q0 2.375-1.281 4.312 4.063 0.969 6.672 4.234t2.609 7.453z"></path>
</svg>
