<?xml version="1.0" encoding="utf-8"?>
<!-- Generated by IcoMoon.io -->
<!DOCTYPE svg PUBLIC "-//W3C//DTD SVG 1.1//EN" "http://www.w3.org/Graphics/SVG/1.1/DTD/svg11.dtd">
<svg version="1.1" xmlns="http://www.w3.org/2000/svg" xmlns:xlink="http://www.w3.org/1999/xlink" width="48" height="48" viewBox="0 0 48 48">
<path fill="#fff" d="M21 14.25c0-1.237 1.013-2.25 2.25-2.25h1.5c1.237 0 2.25 1.013 2.25 2.25v1.5c0 1.237-1.013 2.25-2.25 2.25h-1.5c-1.237 0-2.25-1.013-2.25-2.25v-1.5z"></path>
<path fill="#fff" d="M30 36h-12v-3h3v-9h-3v-3h9v12h3z"></path>
<path fill="#fff" d="M24 0c-13.255 0-24 10.745-24 24s10.745 24 24 24 24-10.745 24-24-10.745-24-24-24zM24 43.5c-10.77 0-19.5-8.73-19.5-19.5s8.73-19.5 19.5-19.5 19.5 8.73 19.5 19.5-8.73 19.5-19.5 19.5z"></path>
</svg>
