<?xml version="1.0" encoding="utf-8"?>
<!-- Generator: Adobe Illustrator 17.1.0, SVG Export Plug-In . SVG Version: 6.00 Build 0)  -->
<!DOCTYPE svg PUBLIC "-//W3C//DTD SVG 1.1//EN" "http://www.w3.org/Graphics/SVG/1.1/DTD/svg11.dtd">
<svg version="1.1" id="Layer_1" xmlns="http://www.w3.org/2000/svg" xmlns:xlink="http://www.w3.org/1999/xlink" x="0px" y="0px"
	 width="27.8px" height="28px" viewBox="0 0 27.8 28" enable-background="new 0 0 27.8 28" xml:space="preserve">
<g>
	<defs>
		<rect id="SVGID_1_" x="0" width="27.8" height="28"/>
	</defs>
	<clipPath id="SVGID_2_">
		<use xlink:href="#SVGID_1_"  overflow="visible"/>
	</clipPath>
	<path clip-path="url(#SVGID_2_)" fill="#B2B2B2" d="M27.8,24.4l-7.4-7.4c1.1-1.7,1.7-3.7,1.7-5.9c0-6.1-5-11-11-11C5,0,0,5,0,11
		s5,11,11,11c2.1,0,4-0.6,5.6-1.6l7.5,7.5L27.8,24.4z M4.1,11c0-3.8,3.1-6.9,6.9-6.9S18,7.2,18,11S14.9,18,11,18
		C7.2,18,4.1,14.9,4.1,11"/>
</g>
</svg>
